<svg width="34" height="29" viewBox="0 0 34 29" fill="none" xmlns="http://www.w3.org/2000/svg">
<path d="M22.4261 9.4026L17.5806 7.95367C17.2169 7.84551 16.843 7.80743 16.4726 7.82091V7.80848H10.5833L0.139648 4.34946L0.171223 18.9758L3.1692 20.4694L4.94426 16.1443L7.53734 17.1783L8.20969 15.5035L9.18345 16.474L8.27496 17.3798C7.95921 17.6945 7.77826 18.1298 7.77826 18.5751C7.77826 19.4864 8.50739 20.2274 9.41429 20.2594C9.44586 21.1427 10.1583 21.8527 11.0445 21.8842C11.0761 22.7675 11.7885 23.4775 12.6747 23.509C12.7073 24.4129 13.4502 25.1396 14.3648 25.1396C14.8114 25.1396 15.2484 24.9592 15.5639 24.6445L16.4726 23.7391L16.8377 24.1029C17.1535 24.4176 17.5902 24.598 18.037 24.598C18.9516 24.598 19.6948 23.8713 19.7269 22.9674C20.6131 22.9359 21.3255 22.2259 21.3571 21.3426C22.2433 21.3111 22.9557 20.6011 22.9873 19.7178C23.8942 19.6853 24.6236 18.9448 24.6236 18.0335C24.6236 17.9566 24.6111 17.8807 24.6008 17.8042L25.3806 17.027L26.0107 18.2837L29.424 16.5825L31.4866 20.5075L33.8613 18.9303V4.93204L22.4261 9.4026ZM2.60616 18.9779L1.25696 18.3054L1.22963 5.85181L7.18418 7.82435L2.60616 18.9779ZM6.93212 15.7701L5.35526 15.1417L8.21791 8.16655L9.77567 8.68276L6.93212 15.7701ZM8.86506 18.5751C8.86506 18.4151 8.92953 18.2588 9.04309 18.1454L9.99855 17.1933C10.1121 17.0802 10.2692 17.0156 10.4294 17.0156C10.7654 17.0156 11.0386 17.2883 11.0386 17.6228C11.0386 17.7825 10.9739 17.9391 10.8603 18.0523L9.90515 19.0046C9.79159 19.1178 9.63451 19.182 9.47425 19.182C9.13835 19.182 8.86506 18.9096 8.86506 18.5751ZM10.4952 20.1999C10.4952 20.0399 10.5597 19.8836 10.6733 19.7702L11.6287 18.8181C11.7423 18.705 11.8994 18.6404 12.0596 18.6404C12.3955 18.6404 12.6688 18.9131 12.6688 19.2476C12.6688 19.4073 12.6041 19.5639 12.4905 19.6771L11.5353 20.6294C11.4218 20.7426 11.2647 20.8068 11.1044 20.8068C10.7685 20.8068 10.4952 20.5344 10.4952 20.1999ZM12.1254 21.8247C12.1254 21.6647 12.1899 21.5084 12.3035 21.395L13.2589 20.4429C13.3725 20.3297 13.5296 20.2652 13.6898 20.2652C14.0257 20.2652 14.299 20.5379 14.299 20.8724C14.299 21.0321 14.2343 21.1887 14.1207 21.3019L13.1655 22.2542C13.052 22.3673 12.8949 22.4316 12.7346 22.4316C12.3987 22.4316 12.1254 22.1592 12.1254 21.8247ZM15.7509 22.9267L14.7957 23.879C14.6822 23.9921 14.5251 24.0564 14.3648 24.0564C14.0289 24.0564 13.7556 23.784 13.7556 23.4495C13.7556 23.2895 13.8201 23.1332 13.9337 23.0197L14.8891 22.0677C15.0027 21.9545 15.1598 21.89 15.32 21.89C15.6559 21.89 15.9292 22.1627 15.9292 22.4972C15.9292 22.6569 15.8645 22.8135 15.7509 22.9267ZM22.9276 18.6404C22.7673 18.6404 22.6103 18.5762 22.4967 18.463L17.9436 13.9247L17.1752 14.6906L21.7283 19.2286C21.8419 19.342 21.9066 19.4983 21.9066 19.6583C21.9066 19.9928 21.6333 20.2652 21.2974 20.2652C21.1371 20.2652 20.9801 20.201 20.8665 20.0878L16.3134 15.5495L15.545 16.3154L20.0981 20.8534C20.2117 20.9668 20.2764 21.1231 20.2764 21.2831C20.2764 21.6176 20.0031 21.89 19.6672 21.89C19.5069 21.89 19.3499 21.8257 19.2363 21.7126L14.6832 17.1743L13.9148 17.9402L18.4679 22.4781C18.5815 22.5916 18.6462 22.7479 18.6462 22.9079C18.6462 23.2424 18.3729 23.5148 18.037 23.5148C17.8768 23.5148 17.7197 23.4505 17.6061 23.3374L16.9932 22.7262C17.0041 22.6506 17.016 22.5747 17.016 22.4972C17.016 21.5856 16.2866 20.8449 15.3797 20.8129C15.3482 19.9296 14.6357 19.2196 13.7495 19.1881C13.718 18.3048 13.0055 17.5948 12.1193 17.5633C12.0867 16.6594 11.344 15.9324 10.4294 15.9324C10.3522 15.9324 10.2761 15.9449 10.1997 15.9552L8.64828 14.4089L10.863 8.89168H14.074L12.0787 10.8806C11.758 11.1995 11.582 11.6243 11.582 12.0759C11.582 13.0079 12.3427 13.7661 13.278 13.7661C13.7246 13.7661 14.1616 13.5857 14.4771 13.271L15.9168 11.8358C16.2113 11.5433 16.73 11.532 17.0367 11.812L18.3071 12.9727C18.7293 13.3583 19.1984 13.679 19.7004 13.9303L23.3585 17.6038C23.4721 17.7172 23.5368 17.8735 23.5368 18.0335C23.5368 18.368 23.2635 18.6404 22.9276 18.6404ZM24.0802 16.7914L21.8466 14.5483C22.0462 14.5671 22.2473 14.5784 22.45 14.5784V13.4953C21.1849 13.4953 19.9742 13.0259 19.0418 12.1738L17.7712 11.0136C17.054 10.3573 15.8374 10.3835 15.1489 11.0705L13.7095 12.5054C13.5954 12.6181 13.4383 12.6829 13.278 12.6829C12.9421 12.6829 12.6688 12.4105 12.6688 12.0759C12.6688 11.9133 12.7317 11.7612 12.8469 11.6462L14.9183 9.5819C15.527 8.97525 16.441 8.74438 17.2681 8.99138L22.0685 10.4266L24.8674 16.0068L24.0802 16.7914ZM26.4966 16.8305L23.2019 10.2626L25.6082 9.32168L28.9196 15.6228L26.4966 16.8305ZM32.7746 18.3509L31.8886 18.9395L26.626 8.92421L32.7746 6.52061V18.3509Z" fill="#E3B873"/>
<ellipse cx="19.6667" cy="1.56986" rx="0.485591" ry="0.483982" fill="#E3B873"/>
<ellipse cx="7.40991" cy="24.4231" rx="0.485591" ry="0.483982" fill="#E3B873"/>
<ellipse cx="9.46801" cy="26.106" rx="0.485591" ry="0.483982" fill="#E3B873"/>
<ellipse cx="11.8166" cy="27.3406" rx="0.485591" ry="0.483982" fill="#E3B873"/>
<ellipse cx="14.3655" cy="28.1305" rx="0.485591" ry="0.483982" fill="#E3B873"/>
<ellipse cx="22.2141" cy="2.34024" rx="0.485591" ry="0.483982" fill="#E3B873"/>
<ellipse cx="24.5632" cy="3.59049" rx="0.485591" ry="0.483982" fill="#E3B873"/>
<path d="M26.8305 2.89093V5.68334H23.9971" stroke="#E3B873" stroke-linecap="round" stroke-linejoin="round"/>
<path d="M5.01039 24.1075L5.01039 21.8482L7.27441 21.8482" stroke="#E3B873" stroke-linecap="round" stroke-linejoin="round"/>
<path d="M7.80078 4.86732C9.3359 3.53594 10.3124 2.92341 12.1519 2.20754C14.1033 1.44813 15.4237 1.26979 17.5441 1.26981" stroke="#E3B873" stroke-linecap="round"/>
<path d="M28.4046 22.2979C27.2633 24.0722 25.1376 25.8046 23.4089 26.7559C21.575 27.765 19.6102 28.3337 16.9931 28.4696" stroke="#E3B873" stroke-linecap="round"/>
</svg>
