<svg width="88" height="88" viewBox="0 0 88 88" fill="none" xmlns="http://www.w3.org/2000/svg">
<g filter="url(#filter0_d_60880_118)">
<path d="M23 39C23 27.402 32.402 18 44 18V18C55.598 18 65 27.402 65 39V39C65 50.598 55.598 60 44 60V60C32.402 60 23 50.598 23 39V39Z" fill="#E3B873"/>
<path d="M19 39C19 52.8071 30.1929 64 44 64C57.8071 64 69 52.8071 69 39C69 25.1929 57.8071 14 44 14C30.1929 14 19 25.1929 19 39Z" stroke="white" stroke-width="8"/>
</g>
<path d="M39.3239 46.27C38.3519 46.27 37.4699 46.012 36.6779 45.496C35.8859 44.98 35.2559 44.23 34.7879 43.246C34.3319 42.25 34.1039 41.068 34.1039 39.7C34.1039 38.332 34.3319 37.156 34.7879 36.172C35.2559 35.176 35.8859 34.42 36.6779 33.904C37.4699 33.388 38.3519 33.13 39.3239 33.13C40.2959 33.13 41.1779 33.388 41.9699 33.904C42.7619 34.42 43.3859 35.176 43.8419 36.172C44.3099 37.156 44.5439 38.332 44.5439 39.7C44.5439 41.068 44.3099 42.25 43.8419 43.246C43.3859 44.23 42.7619 44.98 41.9699 45.496C41.1779 46.012 40.2959 46.27 39.3239 46.27ZM39.3239 45.91C40.7039 45.91 41.3939 43.84 41.3939 39.7C41.3939 35.56 40.7039 33.49 39.3239 33.49C37.9439 33.49 37.2539 35.56 37.2539 39.7C37.2539 43.84 37.9439 45.91 39.3239 45.91ZM45.8925 45.19C45.8925 44.482 46.0305 43.84 46.3065 43.264C46.5945 42.676 46.9425 42.166 47.3505 41.734C47.7585 41.302 48.2925 40.792 48.9525 40.204C49.5645 39.664 50.0445 39.214 50.3925 38.854C50.7405 38.482 51.0345 38.068 51.2745 37.612C51.5145 37.144 51.6345 36.64 51.6345 36.1C51.6345 35.308 51.4425 34.69 51.0585 34.246C50.6745 33.802 50.1765 33.58 49.5645 33.58C49.2165 33.58 48.8625 33.628 48.5025 33.724L48.1245 33.85V36.73L47.8905 36.784C47.6985 36.808 47.5365 36.82 47.4045 36.82C46.9965 36.82 46.6665 36.7 46.4145 36.46C46.1745 36.208 46.0545 35.878 46.0545 35.47C46.0545 35.086 46.1985 34.714 46.4865 34.354C46.7865 33.994 47.2245 33.7 47.8005 33.472C48.3885 33.244 49.0965 33.13 49.9245 33.13C51.5445 33.13 52.7445 33.454 53.5245 34.102C54.3045 34.75 54.6945 35.656 54.6945 36.82C54.6945 37.552 54.5025 38.182 54.1185 38.71C53.7465 39.238 53.2845 39.676 52.7325 40.024C52.1925 40.372 51.4665 40.768 50.5545 41.212C49.7865 41.584 49.1625 41.914 48.6825 42.202C48.2145 42.478 47.7765 42.814 47.3685 43.21C46.9725 43.606 46.6905 44.056 46.5225 44.56H53.1825C53.2665 43.912 53.4705 43.372 53.7945 42.94C53.9265 42.736 54.0825 42.556 54.2625 42.4H54.8025V46H45.8925V45.19Z" fill="white"/>
<defs>
<filter id="filter0_d_60880_118" x="0" y="0" width="88" height="88" filterUnits="userSpaceOnUse" color-interpolation-filters="sRGB">
<feFlood flood-opacity="0" result="BackgroundImageFix"/>
<feColorMatrix in="SourceAlpha" type="matrix" values="0 0 0 0 0 0 0 0 0 0 0 0 0 0 0 0 0 0 127 0" result="hardAlpha"/>
<feOffset dy="5"/>
<feGaussianBlur stdDeviation="7.5"/>
<feColorMatrix type="matrix" values="0 0 0 0 0.890196 0 0 0 0 0.721569 0 0 0 0 0.45098 0 0 0 0.15 0"/>
<feBlend mode="normal" in2="BackgroundImageFix" result="effect1_dropShadow_60880_118"/>
<feBlend mode="normal" in="SourceGraphic" in2="effect1_dropShadow_60880_118" result="shape"/>
</filter>
</defs>
</svg>
