<svg width="88" height="88" viewBox="0 0 88 88" fill="none" xmlns="http://www.w3.org/2000/svg">
<g filter="url(#filter0_d_60880_12)">
<rect x="23" y="18" width="41.7571" height="41.7571" rx="20.8785" fill="#E3B873"/>
<rect x="19" y="14" width="49.7571" height="49.7571" rx="24.8785" stroke="white" stroke-width="8"/>
</g>
<path d="M40.2654 46.27C39.2934 46.27 38.4114 46.012 37.6194 45.496C36.8274 44.98 36.1974 44.23 35.7294 43.246C35.2734 42.25 35.0454 41.068 35.0454 39.7C35.0454 38.332 35.2734 37.156 35.7294 36.172C36.1974 35.176 36.8274 34.42 37.6194 33.904C38.4114 33.388 39.2934 33.13 40.2654 33.13C41.2374 33.13 42.1194 33.388 42.9114 33.904C43.7034 34.42 44.3274 35.176 44.7834 36.172C45.2514 37.156 45.4854 38.332 45.4854 39.7C45.4854 41.068 45.2514 42.25 44.7834 43.246C44.3274 44.23 43.7034 44.98 42.9114 45.496C42.1194 46.012 41.2374 46.27 40.2654 46.27ZM40.2654 45.91C41.6454 45.91 42.3354 43.84 42.3354 39.7C42.3354 35.56 41.6454 33.49 40.2654 33.49C38.8854 33.49 38.1954 35.56 38.1954 39.7C38.1954 43.84 38.8854 45.91 40.2654 45.91ZM47.5539 46V45.73L48.8139 45.37V35.488L46.9239 36.82L46.5639 36.37L49.8399 33.4H51.7839V45.37L53.0439 45.73V46H47.5539Z" fill="white"/>
<defs>
<filter id="filter0_d_60880_12" x="0" y="0" width="87.757" height="87.7571" filterUnits="userSpaceOnUse" color-interpolation-filters="sRGB">
<feFlood flood-opacity="0" result="BackgroundImageFix"/>
<feColorMatrix in="SourceAlpha" type="matrix" values="0 0 0 0 0 0 0 0 0 0 0 0 0 0 0 0 0 0 127 0" result="hardAlpha"/>
<feOffset dy="5"/>
<feGaussianBlur stdDeviation="7.5"/>
<feColorMatrix type="matrix" values="0 0 0 0 0.890196 0 0 0 0 0.721569 0 0 0 0 0.45098 0 0 0 0.15 0"/>
<feBlend mode="normal" in2="BackgroundImageFix" result="effect1_dropShadow_60880_12"/>
<feBlend mode="normal" in="SourceGraphic" in2="effect1_dropShadow_60880_12" result="shape"/>
</filter>
</defs>
</svg>
