<svg width="88" height="88" viewBox="0 0 88 88" fill="none" xmlns="http://www.w3.org/2000/svg">
<g filter="url(#filter0_d_60880_112)">
<rect x="23" y="18" width="41.7571" height="41.7571" rx="20.8785" fill="#E3B873"/>
<rect x="19" y="14" width="49.7571" height="49.7571" rx="24.8785" stroke="white" stroke-width="8"/>
</g>
<path d="M39.2361 46.27C38.2641 46.27 37.3821 46.012 36.5901 45.496C35.7981 44.98 35.1681 44.23 34.7001 43.246C34.2441 42.25 34.0161 41.068 34.0161 39.7C34.0161 38.332 34.2441 37.156 34.7001 36.172C35.1681 35.176 35.7981 34.42 36.5901 33.904C37.3821 33.388 38.2641 33.13 39.2361 33.13C40.2081 33.13 41.0901 33.388 41.8821 33.904C42.6741 34.42 43.2981 35.176 43.7541 36.172C44.2221 37.156 44.4561 38.332 44.4561 39.7C44.4561 41.068 44.2221 42.25 43.7541 43.246C43.2981 44.23 42.6741 44.98 41.8821 45.496C41.0901 46.012 40.2081 46.27 39.2361 46.27ZM39.2361 45.91C40.6161 45.91 41.3061 43.84 41.3061 39.7C41.3061 35.56 40.6161 33.49 39.2361 33.49C37.8561 33.49 37.1661 35.56 37.1661 39.7C37.1661 43.84 37.8561 45.91 39.2361 45.91ZM49.5846 46.27C48.7566 46.27 48.0486 46.156 47.4606 45.928C46.8846 45.7 46.4466 45.406 46.1466 45.046C45.8586 44.686 45.7146 44.314 45.7146 43.93C45.7146 43.522 45.8346 43.198 46.0746 42.958C46.3266 42.706 46.6566 42.58 47.0646 42.58C47.1606 42.58 47.2566 42.592 47.3526 42.616C47.4486 42.628 47.5146 42.634 47.5506 42.634L47.7846 42.67V45.55C47.7966 45.55 47.9226 45.598 48.1626 45.694C48.4746 45.778 48.8286 45.82 49.2246 45.82C50.0646 45.82 50.7066 45.568 51.1506 45.064C51.6066 44.548 51.8346 43.78 51.8346 42.76C51.8346 41.716 51.6126 40.93 51.1686 40.402C50.7366 39.874 50.1486 39.61 49.4046 39.61H48.5046V39.16H49.4046C49.9446 39.16 50.3946 38.92 50.7546 38.44C51.1146 37.96 51.2946 37.27 51.2946 36.37C51.2946 35.47 51.1086 34.78 50.7366 34.3C50.3646 33.82 49.8906 33.58 49.3146 33.58C49.0026 33.58 48.7026 33.628 48.4146 33.724C48.3786 33.736 48.2586 33.778 48.0546 33.85V36.73L47.8206 36.784C47.6286 36.808 47.4666 36.82 47.3346 36.82C46.9266 36.82 46.5966 36.7 46.3446 36.46C46.1046 36.208 45.9846 35.878 45.9846 35.47C45.9846 35.098 46.1286 34.732 46.4166 34.372C46.7046 34.012 47.1246 33.718 47.6766 33.49C48.2406 33.25 48.9066 33.13 49.6746 33.13C50.6826 33.13 51.5346 33.28 52.2306 33.58C52.9386 33.868 53.4666 34.258 53.8146 34.75C54.1746 35.242 54.3546 35.782 54.3546 36.37C54.3546 37.054 54.1806 37.6 53.8326 38.008C53.4846 38.404 53.0286 38.722 52.4646 38.962C51.9126 39.178 51.2826 39.304 50.5746 39.34V39.43C51.3666 39.466 52.0866 39.604 52.7346 39.844C54.1746 40.42 54.8946 41.392 54.8946 42.76C54.8946 43.816 54.4566 44.668 53.5806 45.316C52.7166 45.952 51.3846 46.27 49.5846 46.27Z" fill="white"/>
<defs>
<filter id="filter0_d_60880_112" x="0" y="0" width="87.757" height="87.7571" filterUnits="userSpaceOnUse" color-interpolation-filters="sRGB">
<feFlood flood-opacity="0" result="BackgroundImageFix"/>
<feColorMatrix in="SourceAlpha" type="matrix" values="0 0 0 0 0 0 0 0 0 0 0 0 0 0 0 0 0 0 127 0" result="hardAlpha"/>
<feOffset dy="5"/>
<feGaussianBlur stdDeviation="7.5"/>
<feColorMatrix type="matrix" values="0 0 0 0 0.890196 0 0 0 0 0.721569 0 0 0 0 0.45098 0 0 0 0.15 0"/>
<feBlend mode="normal" in2="BackgroundImageFix" result="effect1_dropShadow_60880_112"/>
<feBlend mode="normal" in="SourceGraphic" in2="effect1_dropShadow_60880_112" result="shape"/>
</filter>
</defs>
</svg>
